G04 #@! TF.GenerationSoftware,KiCad,Pcbnew,(5.0.0)*
G04 #@! TF.CreationDate,2018-10-24T12:10:12-04:00*
G04 #@! TF.ProjectId,DRV2603_breakout,445256323630335F627265616B6F7574,0.1*
G04 #@! TF.SameCoordinates,Original*
G04 #@! TF.FileFunction,Copper,L1,Top,Signal*
G04 #@! TF.FilePolarity,Positive*
%FSLAX46Y46*%
G04 Gerber Fmt 4.6, Leading zero omitted, Abs format (unit mm)*
G04 Created by KiCad (PCBNEW (5.0.0)) date 10/24/18 12:10:12*
%MOMM*%
%LPD*%
G01*
G04 APERTURE LIST*
G04 #@! TA.AperFunction,SMDPad,CuDef*
%ADD10R,0.270000X0.960000*%
G04 #@! TD*
G04 #@! TA.AperFunction,SMDPad,CuDef*
%ADD11R,0.960000X0.270000*%
G04 #@! TD*
G04 #@! TA.AperFunction,ComponentPad*
%ADD12R,1.700000X1.700000*%
G04 #@! TD*
G04 #@! TA.AperFunction,ComponentPad*
%ADD13O,1.700000X1.700000*%
G04 #@! TD*
G04 #@! TA.AperFunction,Conductor*
%ADD14C,0.240000*%
G04 #@! TD*
G04 #@! TA.AperFunction,Conductor*
%ADD15C,0.254000*%
G04 #@! TD*
G04 APERTURE END LIST*
D10*
G04 #@! TO.P,U2,5*
G04 #@! TO.N,/GND*
X155956000Y-128643000D03*
G04 #@! TO.P,U2,10*
X155956000Y-126873000D03*
D11*
G04 #@! TO.P,U2,1*
G04 #@! TO.N,/EN_2*
X155071000Y-127008000D03*
G04 #@! TO.P,U2,2*
G04 #@! TO.N,/PWM_2*
X155071000Y-127508000D03*
G04 #@! TO.P,U2,3*
G04 #@! TO.N,/LRA_ERM_2*
X155071000Y-128008000D03*
G04 #@! TO.P,U2,4*
G04 #@! TO.N,/NC_2*
X155071000Y-128508000D03*
G04 #@! TO.P,U2,6*
G04 #@! TO.N,/OUT-_2*
X156841000Y-128508000D03*
G04 #@! TO.P,U2,7*
G04 #@! TO.N,/VDD*
X156841000Y-128008000D03*
G04 #@! TO.P,U2,8*
G04 #@! TO.N,/GND*
X156841000Y-127508000D03*
G04 #@! TO.P,U2,9*
G04 #@! TO.N,/OUT+_2*
X156841000Y-127008000D03*
G04 #@! TD*
D10*
G04 #@! TO.P,U1,5*
G04 #@! TO.N,/GND*
X155752800Y-102253860D03*
G04 #@! TO.P,U1,10*
X155752800Y-100483860D03*
D11*
G04 #@! TO.P,U1,1*
G04 #@! TO.N,/EN*
X154867800Y-100618860D03*
G04 #@! TO.P,U1,2*
G04 #@! TO.N,/PWM*
X154867800Y-101118860D03*
G04 #@! TO.P,U1,3*
G04 #@! TO.N,/LRA_ERM*
X154867800Y-101618860D03*
G04 #@! TO.P,U1,4*
G04 #@! TO.N,/NC*
X154867800Y-102118860D03*
G04 #@! TO.P,U1,6*
G04 #@! TO.N,/OUT-*
X156637800Y-102118860D03*
G04 #@! TO.P,U1,7*
G04 #@! TO.N,/VDD*
X156637800Y-101618860D03*
G04 #@! TO.P,U1,8*
G04 #@! TO.N,/GND*
X156637800Y-101118860D03*
G04 #@! TO.P,U1,9*
G04 #@! TO.N,/OUT+*
X156637800Y-100618860D03*
G04 #@! TD*
D12*
G04 #@! TO.P,J3,1*
G04 #@! TO.N,/EN_2*
X151384000Y-120904000D03*
D13*
G04 #@! TO.P,J3,2*
G04 #@! TO.N,/PWM_2*
X151384000Y-123444000D03*
G04 #@! TO.P,J3,3*
G04 #@! TO.N,/LRA_ERM_2*
X151384000Y-125984000D03*
G04 #@! TO.P,J3,4*
G04 #@! TO.N,/NC_2*
X151384000Y-128524000D03*
G04 #@! TO.P,J3,5*
G04 #@! TO.N,/OUT-_2*
X151384000Y-131064000D03*
G04 #@! TO.P,J3,6*
G04 #@! TO.N,/OUT+_2*
X151384000Y-133604000D03*
G04 #@! TD*
D12*
G04 #@! TO.P,J1,1*
G04 #@! TO.N,/GND*
X151384000Y-113284000D03*
D13*
G04 #@! TO.P,J1,2*
G04 #@! TO.N,/VDD*
X151384000Y-115824000D03*
G04 #@! TD*
D12*
G04 #@! TO.P,J2,1*
G04 #@! TO.N,/EN*
X151384000Y-96012000D03*
D13*
G04 #@! TO.P,J2,2*
G04 #@! TO.N,/PWM*
X151384000Y-98552000D03*
G04 #@! TO.P,J2,3*
G04 #@! TO.N,/LRA_ERM*
X151384000Y-101092000D03*
G04 #@! TO.P,J2,4*
G04 #@! TO.N,/NC*
X151384000Y-103632000D03*
G04 #@! TO.P,J2,5*
G04 #@! TO.N,/OUT-*
X151384000Y-106172000D03*
G04 #@! TO.P,J2,6*
G04 #@! TO.N,/OUT+*
X151384000Y-108712000D03*
G04 #@! TD*
D14*
G04 #@! TO.N,/GND*
X156841000Y-127508000D02*
X158496000Y-127508000D01*
X157084759Y-101113861D02*
X157981379Y-101113861D01*
X156637800Y-101118860D02*
X157079760Y-101118860D01*
X157079760Y-101118860D02*
X157084759Y-101113861D01*
X155752800Y-101240858D02*
X155874798Y-101118860D01*
X155752800Y-102253860D02*
X155752800Y-101240858D01*
X155917800Y-101118860D02*
X156637800Y-101118860D01*
X155874798Y-101118860D02*
X155917800Y-101118860D01*
X155752800Y-100996862D02*
X155874798Y-101118860D01*
X155752800Y-100483860D02*
X155752800Y-100996862D01*
X155956000Y-127386002D02*
X156077998Y-127508000D01*
X155956000Y-126873000D02*
X155956000Y-127386002D01*
X156121000Y-127508000D02*
X156841000Y-127508000D01*
X156077998Y-127508000D02*
X156121000Y-127508000D01*
X155956000Y-127629998D02*
X156077998Y-127508000D01*
X155956000Y-128643000D02*
X155956000Y-127629998D01*
G04 #@! TO.N,/VDD*
X152233999Y-114974001D02*
X151384000Y-115824000D01*
X157681001Y-109526999D02*
X152233999Y-114974001D01*
X157681001Y-101899059D02*
X157681001Y-103357680D01*
X157400802Y-101618860D02*
X157681001Y-101899059D01*
X156637800Y-101618860D02*
X157400802Y-101618860D01*
X157681001Y-102986001D02*
X157681001Y-103357680D01*
X157681001Y-103357680D02*
X157681001Y-109526999D01*
X157561000Y-128008000D02*
X157681001Y-128128001D01*
X156841000Y-128008000D02*
X157561000Y-128008000D01*
X157681001Y-128128001D02*
X157681001Y-129844459D01*
X157681001Y-129844459D02*
X152496520Y-135028940D01*
X152496520Y-135028940D02*
X149161500Y-135028940D01*
X149161500Y-135028940D02*
X148168360Y-134035800D01*
X148168360Y-119039640D02*
X151384000Y-115824000D01*
X148168360Y-134035800D02*
X148168360Y-119039640D01*
G04 #@! TO.N,/EN*
X154867800Y-100243860D02*
X154867800Y-100618860D01*
X154867800Y-98405800D02*
X154867800Y-100243860D01*
X152474000Y-96012000D02*
X154867800Y-98405800D01*
X151384000Y-96012000D02*
X152474000Y-96012000D01*
G04 #@! TO.N,/PWM*
X153950860Y-101118860D02*
X154867800Y-101118860D01*
X151384000Y-98552000D02*
X153950860Y-101118860D01*
G04 #@! TO.N,/LRA_ERM*
X153112941Y-101618860D02*
X155123960Y-101618860D01*
X151384000Y-101092000D02*
X152586081Y-101092000D01*
X152586081Y-101092000D02*
X153112941Y-101618860D01*
G04 #@! TO.N,/NC*
X154867800Y-102493860D02*
X154867800Y-102118860D01*
X153729660Y-103632000D02*
X154867800Y-102493860D01*
X151384000Y-103632000D02*
X153729660Y-103632000D01*
G04 #@! TO.N,/OUT+*
X149352000Y-106680000D02*
X149352000Y-94007940D01*
X149352000Y-94007940D02*
X149583140Y-93776800D01*
X151384000Y-108712000D02*
X149352000Y-106680000D01*
X156637800Y-95512700D02*
X154901900Y-93776800D01*
X156637800Y-100618860D02*
X156637800Y-95512700D01*
X149583140Y-93776800D02*
X154901900Y-93776800D01*
G04 #@! TO.N,/OUT-*
X156637800Y-102493860D02*
X156637800Y-102118860D01*
X156637800Y-102631862D02*
X156637800Y-102493860D01*
X153097662Y-106172000D02*
X156637800Y-102631862D01*
X151384000Y-106172000D02*
X153097662Y-106172000D01*
G04 #@! TO.N,/OUT-_2*
X156841000Y-128883000D02*
X156841000Y-128508000D01*
X156841000Y-129021002D02*
X156841000Y-128883000D01*
X155648001Y-130214001D02*
X156841000Y-129021002D01*
X152233999Y-130214001D02*
X155648001Y-130214001D01*
X151384000Y-131064000D02*
X152233999Y-130214001D01*
G04 #@! TO.N,/OUT+_2*
X156841000Y-127008000D02*
X156841000Y-122040460D01*
X152976580Y-118176040D02*
X150522940Y-118176040D01*
X156841000Y-122040460D02*
X152976580Y-118176040D01*
X150522940Y-118176040D02*
X148981160Y-119717820D01*
X148981160Y-131201160D02*
X151384000Y-133604000D01*
X148981160Y-119717820D02*
X148981160Y-131201160D01*
G04 #@! TO.N,/NC_2*
X155055000Y-128524000D02*
X155071000Y-128508000D01*
X151400000Y-128508000D02*
X151384000Y-128524000D01*
X155071000Y-128508000D02*
X151400000Y-128508000D01*
G04 #@! TO.N,/LRA_ERM_2*
X153408000Y-128008000D02*
X155071000Y-128008000D01*
X151384000Y-125984000D02*
X153408000Y-128008000D01*
G04 #@! TO.N,/PWM_2*
X151384000Y-123444000D02*
X153634440Y-125694440D01*
X154351000Y-127508000D02*
X155071000Y-127508000D01*
X154307998Y-127508000D02*
X154351000Y-127508000D01*
X153634440Y-126834442D02*
X154307998Y-127508000D01*
X153634440Y-125694440D02*
X153634440Y-126834442D01*
G04 #@! TO.N,/EN_2*
X152474000Y-120904000D02*
X154940000Y-123370000D01*
X151384000Y-120904000D02*
X152474000Y-120904000D01*
X154940000Y-123370000D02*
X155071000Y-123501000D01*
X155071000Y-123501000D02*
X155071000Y-127012999D01*
G04 #@! TD*
D15*
G04 #@! TO.N,/GND*
G36*
X159310001Y-135434000D02*
X153159190Y-135434000D01*
X158162291Y-130430901D01*
X158225325Y-130388783D01*
X158267443Y-130325749D01*
X158267446Y-130325746D01*
X158392194Y-130139046D01*
X158392195Y-130139045D01*
X158436001Y-129918818D01*
X158436001Y-129918814D01*
X158450791Y-129844460D01*
X158436001Y-129770106D01*
X158436001Y-128202354D01*
X158450791Y-128128000D01*
X158436001Y-128053646D01*
X158436001Y-128053642D01*
X158392195Y-127833415D01*
X158225325Y-127583677D01*
X158162285Y-127541555D01*
X158147446Y-127526716D01*
X158105324Y-127463676D01*
X157928196Y-127345323D01*
X157937077Y-127300673D01*
X157956000Y-127281750D01*
X157956000Y-127246690D01*
X157950470Y-127233340D01*
X157968440Y-127143000D01*
X157968440Y-126873000D01*
X157919157Y-126625235D01*
X157778809Y-126415191D01*
X157596000Y-126293041D01*
X157596000Y-122114813D01*
X157610790Y-122040459D01*
X157596000Y-121966105D01*
X157596000Y-121966101D01*
X157552194Y-121745874D01*
X157385324Y-121496136D01*
X157322287Y-121454016D01*
X153563026Y-117694756D01*
X153520904Y-117631716D01*
X153271166Y-117464846D01*
X153050939Y-117421040D01*
X153050934Y-117421040D01*
X152976580Y-117406250D01*
X152902226Y-117421040D01*
X150854691Y-117421040D01*
X151011695Y-117264036D01*
X151237744Y-117309000D01*
X151530256Y-117309000D01*
X151963418Y-117222839D01*
X152454625Y-116894625D01*
X152782839Y-116403418D01*
X152898092Y-115824000D01*
X152824036Y-115451694D01*
X158162288Y-110113443D01*
X158225325Y-110071323D01*
X158392195Y-109821585D01*
X158436001Y-109601358D01*
X158436001Y-109601354D01*
X158450791Y-109527000D01*
X158436001Y-109452646D01*
X158436001Y-101973412D01*
X158450791Y-101899058D01*
X158436001Y-101824704D01*
X158436001Y-101824700D01*
X158392195Y-101604473D01*
X158225325Y-101354735D01*
X158162287Y-101312615D01*
X157987248Y-101137575D01*
X157945126Y-101074536D01*
X157730041Y-100930820D01*
X157733877Y-100911533D01*
X157752800Y-100892610D01*
X157752800Y-100857550D01*
X157747270Y-100844200D01*
X157765240Y-100753860D01*
X157765240Y-100483860D01*
X157715957Y-100236095D01*
X157575609Y-100026051D01*
X157392800Y-99903901D01*
X157392800Y-95587053D01*
X157407590Y-95512699D01*
X157392800Y-95438345D01*
X157392800Y-95438341D01*
X157348994Y-95218114D01*
X157311500Y-95162000D01*
X157224245Y-95031413D01*
X157224242Y-95031410D01*
X157182124Y-94968376D01*
X157119089Y-94926258D01*
X155488346Y-93295516D01*
X155446224Y-93232476D01*
X155346736Y-93166000D01*
X159310000Y-93166000D01*
X159310001Y-135434000D01*
X159310001Y-135434000D01*
G37*
X159310001Y-135434000D02*
X153159190Y-135434000D01*
X158162291Y-130430901D01*
X158225325Y-130388783D01*
X158267443Y-130325749D01*
X158267446Y-130325746D01*
X158392194Y-130139046D01*
X158392195Y-130139045D01*
X158436001Y-129918818D01*
X158436001Y-129918814D01*
X158450791Y-129844460D01*
X158436001Y-129770106D01*
X158436001Y-128202354D01*
X158450791Y-128128000D01*
X158436001Y-128053646D01*
X158436001Y-128053642D01*
X158392195Y-127833415D01*
X158225325Y-127583677D01*
X158162285Y-127541555D01*
X158147446Y-127526716D01*
X158105324Y-127463676D01*
X157928196Y-127345323D01*
X157937077Y-127300673D01*
X157956000Y-127281750D01*
X157956000Y-127246690D01*
X157950470Y-127233340D01*
X157968440Y-127143000D01*
X157968440Y-126873000D01*
X157919157Y-126625235D01*
X157778809Y-126415191D01*
X157596000Y-126293041D01*
X157596000Y-122114813D01*
X157610790Y-122040459D01*
X157596000Y-121966105D01*
X157596000Y-121966101D01*
X157552194Y-121745874D01*
X157385324Y-121496136D01*
X157322287Y-121454016D01*
X153563026Y-117694756D01*
X153520904Y-117631716D01*
X153271166Y-117464846D01*
X153050939Y-117421040D01*
X153050934Y-117421040D01*
X152976580Y-117406250D01*
X152902226Y-117421040D01*
X150854691Y-117421040D01*
X151011695Y-117264036D01*
X151237744Y-117309000D01*
X151530256Y-117309000D01*
X151963418Y-117222839D01*
X152454625Y-116894625D01*
X152782839Y-116403418D01*
X152898092Y-115824000D01*
X152824036Y-115451694D01*
X158162288Y-110113443D01*
X158225325Y-110071323D01*
X158392195Y-109821585D01*
X158436001Y-109601358D01*
X158436001Y-109601354D01*
X158450791Y-109527000D01*
X158436001Y-109452646D01*
X158436001Y-101973412D01*
X158450791Y-101899058D01*
X158436001Y-101824704D01*
X158436001Y-101824700D01*
X158392195Y-101604473D01*
X158225325Y-101354735D01*
X158162287Y-101312615D01*
X157987248Y-101137575D01*
X157945126Y-101074536D01*
X157730041Y-100930820D01*
X157733877Y-100911533D01*
X157752800Y-100892610D01*
X157752800Y-100857550D01*
X157747270Y-100844200D01*
X157765240Y-100753860D01*
X157765240Y-100483860D01*
X157715957Y-100236095D01*
X157575609Y-100026051D01*
X157392800Y-99903901D01*
X157392800Y-95587053D01*
X157407590Y-95512699D01*
X157392800Y-95438345D01*
X157392800Y-95438341D01*
X157348994Y-95218114D01*
X157311500Y-95162000D01*
X157224245Y-95031413D01*
X157224242Y-95031410D01*
X157182124Y-94968376D01*
X157119089Y-94926258D01*
X155488346Y-93295516D01*
X155446224Y-93232476D01*
X155346736Y-93166000D01*
X159310000Y-93166000D01*
X159310001Y-135434000D01*
G36*
X149038816Y-93232476D02*
X148996695Y-93295514D01*
X148870713Y-93421496D01*
X148807677Y-93463616D01*
X148765557Y-93526653D01*
X148765555Y-93526655D01*
X148640807Y-93713354D01*
X148582210Y-94007940D01*
X148597001Y-94082299D01*
X148597000Y-106605646D01*
X148582210Y-106680000D01*
X148597000Y-106754354D01*
X148597000Y-106754358D01*
X148640806Y-106974585D01*
X148807676Y-107224324D01*
X148870716Y-107266446D01*
X149943964Y-108339694D01*
X149869908Y-108712000D01*
X149985161Y-109291418D01*
X150313375Y-109782625D01*
X150804582Y-110110839D01*
X151237744Y-110197000D01*
X151530256Y-110197000D01*
X151963418Y-110110839D01*
X152454625Y-109782625D01*
X152782839Y-109291418D01*
X152898092Y-108712000D01*
X152782839Y-108132582D01*
X152454625Y-107641375D01*
X152156239Y-107442000D01*
X152454625Y-107242625D01*
X152665519Y-106927000D01*
X153023308Y-106927000D01*
X153097662Y-106941790D01*
X153172016Y-106927000D01*
X153172021Y-106927000D01*
X153392248Y-106883194D01*
X153641986Y-106716324D01*
X153684108Y-106653284D01*
X156926001Y-103411392D01*
X156926002Y-109214267D01*
X152869000Y-113271270D01*
X152869000Y-113156998D01*
X152710252Y-113156998D01*
X152869000Y-112998250D01*
X152869000Y-112307690D01*
X152772327Y-112074301D01*
X152593698Y-111895673D01*
X152360309Y-111799000D01*
X151669750Y-111799000D01*
X151511000Y-111957750D01*
X151511000Y-113157000D01*
X151531000Y-113157000D01*
X151531000Y-113411000D01*
X151511000Y-113411000D01*
X151511000Y-113431000D01*
X151257000Y-113431000D01*
X151257000Y-113411000D01*
X150057750Y-113411000D01*
X149899000Y-113569750D01*
X149899000Y-114260310D01*
X149995673Y-114493699D01*
X150174302Y-114672327D01*
X150335033Y-114738904D01*
X150313375Y-114753375D01*
X149985161Y-115244582D01*
X149869908Y-115824000D01*
X149943964Y-116196305D01*
X147687074Y-118453196D01*
X147624037Y-118495316D01*
X147581917Y-118558353D01*
X147581915Y-118558355D01*
X147522000Y-118648024D01*
X147522000Y-112307690D01*
X149899000Y-112307690D01*
X149899000Y-112998250D01*
X150057750Y-113157000D01*
X151257000Y-113157000D01*
X151257000Y-111957750D01*
X151098250Y-111799000D01*
X150407691Y-111799000D01*
X150174302Y-111895673D01*
X149995673Y-112074301D01*
X149899000Y-112307690D01*
X147522000Y-112307690D01*
X147522000Y-93166000D01*
X149138304Y-93166000D01*
X149038816Y-93232476D01*
X149038816Y-93232476D01*
G37*
X149038816Y-93232476D02*
X148996695Y-93295514D01*
X148870713Y-93421496D01*
X148807677Y-93463616D01*
X148765557Y-93526653D01*
X148765555Y-93526655D01*
X148640807Y-93713354D01*
X148582210Y-94007940D01*
X148597001Y-94082299D01*
X148597000Y-106605646D01*
X148582210Y-106680000D01*
X148597000Y-106754354D01*
X148597000Y-106754358D01*
X148640806Y-106974585D01*
X148807676Y-107224324D01*
X148870716Y-107266446D01*
X149943964Y-108339694D01*
X149869908Y-108712000D01*
X149985161Y-109291418D01*
X150313375Y-109782625D01*
X150804582Y-110110839D01*
X151237744Y-110197000D01*
X151530256Y-110197000D01*
X151963418Y-110110839D01*
X152454625Y-109782625D01*
X152782839Y-109291418D01*
X152898092Y-108712000D01*
X152782839Y-108132582D01*
X152454625Y-107641375D01*
X152156239Y-107442000D01*
X152454625Y-107242625D01*
X152665519Y-106927000D01*
X153023308Y-106927000D01*
X153097662Y-106941790D01*
X153172016Y-106927000D01*
X153172021Y-106927000D01*
X153392248Y-106883194D01*
X153641986Y-106716324D01*
X153684108Y-106653284D01*
X156926001Y-103411392D01*
X156926002Y-109214267D01*
X152869000Y-113271270D01*
X152869000Y-113156998D01*
X152710252Y-113156998D01*
X152869000Y-112998250D01*
X152869000Y-112307690D01*
X152772327Y-112074301D01*
X152593698Y-111895673D01*
X152360309Y-111799000D01*
X151669750Y-111799000D01*
X151511000Y-111957750D01*
X151511000Y-113157000D01*
X151531000Y-113157000D01*
X151531000Y-113411000D01*
X151511000Y-113411000D01*
X151511000Y-113431000D01*
X151257000Y-113431000D01*
X151257000Y-113411000D01*
X150057750Y-113411000D01*
X149899000Y-113569750D01*
X149899000Y-114260310D01*
X149995673Y-114493699D01*
X150174302Y-114672327D01*
X150335033Y-114738904D01*
X150313375Y-114753375D01*
X149985161Y-115244582D01*
X149869908Y-115824000D01*
X149943964Y-116196305D01*
X147687074Y-118453196D01*
X147624037Y-118495316D01*
X147581917Y-118558353D01*
X147581915Y-118558355D01*
X147522000Y-118648024D01*
X147522000Y-112307690D01*
X149899000Y-112307690D01*
X149899000Y-112998250D01*
X150057750Y-113157000D01*
X151257000Y-113157000D01*
X151257000Y-111957750D01*
X151098250Y-111799000D01*
X150407691Y-111799000D01*
X150174302Y-111895673D01*
X149995673Y-112074301D01*
X149899000Y-112307690D01*
X147522000Y-112307690D01*
X147522000Y-93166000D01*
X149138304Y-93166000D01*
X149038816Y-93232476D01*
G04 #@! TD*
M02*
