G04 #@! TF.GenerationSoftware,KiCad,Pcbnew,(5.0.0)*
G04 #@! TF.CreationDate,2018-11-16T11:24:39-05:00*
G04 #@! TF.ProjectId,DRV2603_breakout,445256323630335F627265616B6F7574,0.1*
G04 #@! TF.SameCoordinates,Original*
G04 #@! TF.FileFunction,Copper,L1,Top,Signal*
G04 #@! TF.FilePolarity,Positive*
%FSLAX46Y46*%
G04 Gerber Fmt 4.6, Leading zero omitted, Abs format (unit mm)*
G04 Created by KiCad (PCBNEW (5.0.0)) date 11/16/18 11:24:39*
%MOMM*%
%LPD*%
G01*
G04 APERTURE LIST*
G04 #@! TA.AperFunction,SMDPad,CuDef*
%ADD10R,0.270000X0.960000*%
G04 #@! TD*
G04 #@! TA.AperFunction,SMDPad,CuDef*
%ADD11R,0.960000X0.270000*%
G04 #@! TD*
G04 #@! TA.AperFunction,ComponentPad*
%ADD12R,1.700000X1.700000*%
G04 #@! TD*
G04 #@! TA.AperFunction,ComponentPad*
%ADD13O,1.700000X1.700000*%
G04 #@! TD*
G04 #@! TA.AperFunction,ViaPad*
%ADD14C,0.800000*%
G04 #@! TD*
G04 #@! TA.AperFunction,Conductor*
%ADD15C,0.240000*%
G04 #@! TD*
G04 APERTURE END LIST*
D10*
G04 #@! TO.P,U2,5*
G04 #@! TO.N,/GND*
X155956000Y-128643000D03*
G04 #@! TO.P,U2,10*
X155956000Y-126873000D03*
D11*
G04 #@! TO.P,U2,1*
G04 #@! TO.N,/EN_2*
X155071000Y-127008000D03*
G04 #@! TO.P,U2,2*
G04 #@! TO.N,/PWM_2*
X155071000Y-127508000D03*
G04 #@! TO.P,U2,3*
G04 #@! TO.N,/LRA_ERM_2*
X155071000Y-128008000D03*
G04 #@! TO.P,U2,4*
G04 #@! TO.N,/NC_2*
X155071000Y-128508000D03*
G04 #@! TO.P,U2,6*
G04 #@! TO.N,/OUT-_2*
X156841000Y-128508000D03*
G04 #@! TO.P,U2,7*
G04 #@! TO.N,/VDD*
X156841000Y-128008000D03*
G04 #@! TO.P,U2,8*
G04 #@! TO.N,/GND*
X156841000Y-127508000D03*
G04 #@! TO.P,U2,9*
G04 #@! TO.N,/OUT+_2*
X156841000Y-127008000D03*
G04 #@! TD*
D10*
G04 #@! TO.P,U1,5*
G04 #@! TO.N,/GND*
X155752800Y-102253860D03*
G04 #@! TO.P,U1,10*
X155752800Y-100483860D03*
D11*
G04 #@! TO.P,U1,1*
G04 #@! TO.N,/EN*
X154867800Y-100618860D03*
G04 #@! TO.P,U1,2*
G04 #@! TO.N,/PWM*
X154867800Y-101118860D03*
G04 #@! TO.P,U1,3*
G04 #@! TO.N,/LRA_ERM*
X154867800Y-101618860D03*
G04 #@! TO.P,U1,4*
G04 #@! TO.N,/NC*
X154867800Y-102118860D03*
G04 #@! TO.P,U1,6*
G04 #@! TO.N,/OUT-*
X156637800Y-102118860D03*
G04 #@! TO.P,U1,7*
G04 #@! TO.N,/VDD*
X156637800Y-101618860D03*
G04 #@! TO.P,U1,8*
G04 #@! TO.N,/GND*
X156637800Y-101118860D03*
G04 #@! TO.P,U1,9*
G04 #@! TO.N,/OUT+*
X156637800Y-100618860D03*
G04 #@! TD*
D12*
G04 #@! TO.P,J3,1*
G04 #@! TO.N,/EN_2*
X151384000Y-120904000D03*
D13*
G04 #@! TO.P,J3,2*
G04 #@! TO.N,/PWM_2*
X151384000Y-123444000D03*
G04 #@! TO.P,J3,3*
G04 #@! TO.N,/LRA_ERM_2*
X151384000Y-125984000D03*
G04 #@! TO.P,J3,4*
G04 #@! TO.N,/NC_2*
X151384000Y-128524000D03*
G04 #@! TO.P,J3,5*
G04 #@! TO.N,/OUT-_2*
X151384000Y-131064000D03*
G04 #@! TO.P,J3,6*
G04 #@! TO.N,/OUT+_2*
X151384000Y-133604000D03*
G04 #@! TD*
D12*
G04 #@! TO.P,J1,1*
G04 #@! TO.N,/GND*
X151384000Y-113284000D03*
D13*
G04 #@! TO.P,J1,2*
G04 #@! TO.N,/VDD*
X151384000Y-115824000D03*
G04 #@! TD*
D12*
G04 #@! TO.P,J2,1*
G04 #@! TO.N,/EN*
X151384000Y-96012000D03*
D13*
G04 #@! TO.P,J2,2*
G04 #@! TO.N,/PWM*
X151384000Y-98552000D03*
G04 #@! TO.P,J2,3*
G04 #@! TO.N,/LRA_ERM*
X151384000Y-101092000D03*
G04 #@! TO.P,J2,4*
G04 #@! TO.N,/NC*
X151384000Y-103632000D03*
G04 #@! TO.P,J2,5*
G04 #@! TO.N,/OUT-*
X151384000Y-106172000D03*
G04 #@! TO.P,J2,6*
G04 #@! TO.N,/OUT+*
X151384000Y-108712000D03*
G04 #@! TD*
D14*
G04 #@! TO.N,/GND*
X158648400Y-101003100D03*
X155940760Y-124241560D03*
G04 #@! TD*
D15*
G04 #@! TO.N,/GND*
X158648400Y-101003100D02*
X158371389Y-101003100D01*
X156637800Y-101118860D02*
X157079760Y-101118860D01*
X157079760Y-101118860D02*
X157084759Y-101113861D01*
X155752800Y-101240858D02*
X155874798Y-101118860D01*
X155752800Y-102253860D02*
X155752800Y-101240858D01*
X155917800Y-101118860D02*
X156637800Y-101118860D01*
X155874798Y-101118860D02*
X155917800Y-101118860D01*
X155752800Y-100996862D02*
X155874798Y-101118860D01*
X155752800Y-100483860D02*
X155752800Y-100996862D01*
X155956000Y-127386002D02*
X156077998Y-127508000D01*
X155956000Y-126873000D02*
X155956000Y-127386002D01*
X156077998Y-127508000D02*
X156121000Y-127508000D01*
X155956000Y-128643000D02*
X155956000Y-127629998D01*
X158532640Y-101118860D02*
X158648400Y-101003100D01*
X156637800Y-101118860D02*
X158532640Y-101118860D01*
X156077998Y-127508000D02*
X155956000Y-127629998D01*
X156841000Y-127508000D02*
X156077998Y-127508000D01*
X155940760Y-124241560D02*
X155940760Y-124127260D01*
X155956000Y-124256800D02*
X155940760Y-124241560D01*
X155956000Y-126873000D02*
X155956000Y-124256800D01*
G04 #@! TO.N,/VDD*
X152233999Y-114974001D02*
X151384000Y-115824000D01*
X157681001Y-109526999D02*
X152233999Y-114974001D01*
X157681001Y-101899059D02*
X157681001Y-103357680D01*
X157400802Y-101618860D02*
X157681001Y-101899059D01*
X156637800Y-101618860D02*
X157400802Y-101618860D01*
X157681001Y-102986001D02*
X157681001Y-103357680D01*
X157681001Y-103357680D02*
X157681001Y-109526999D01*
X157561000Y-128008000D02*
X157681001Y-128128001D01*
X156841000Y-128008000D02*
X157561000Y-128008000D01*
X157681001Y-128128001D02*
X157681001Y-129844459D01*
X157681001Y-129844459D02*
X152496520Y-135028940D01*
X152496520Y-135028940D02*
X149161500Y-135028940D01*
X149161500Y-135028940D02*
X148168360Y-134035800D01*
X148168360Y-119039640D02*
X151384000Y-115824000D01*
X148168360Y-134035800D02*
X148168360Y-119039640D01*
G04 #@! TO.N,/EN*
X154867800Y-100243860D02*
X154867800Y-100618860D01*
X154867800Y-98405800D02*
X154867800Y-100243860D01*
X152474000Y-96012000D02*
X154867800Y-98405800D01*
X151384000Y-96012000D02*
X152474000Y-96012000D01*
G04 #@! TO.N,/PWM*
X153950860Y-101118860D02*
X154867800Y-101118860D01*
X151384000Y-98552000D02*
X153950860Y-101118860D01*
G04 #@! TO.N,/LRA_ERM*
X153112941Y-101618860D02*
X155123960Y-101618860D01*
X151384000Y-101092000D02*
X152586081Y-101092000D01*
X152586081Y-101092000D02*
X153112941Y-101618860D01*
G04 #@! TO.N,/NC*
X154867800Y-102493860D02*
X154867800Y-102118860D01*
X153729660Y-103632000D02*
X154867800Y-102493860D01*
X151384000Y-103632000D02*
X153729660Y-103632000D01*
G04 #@! TO.N,/OUT+*
X149352000Y-106680000D02*
X149352000Y-94007940D01*
X149352000Y-94007940D02*
X149583140Y-93776800D01*
X151384000Y-108712000D02*
X149352000Y-106680000D01*
X156637800Y-95512700D02*
X154901900Y-93776800D01*
X156637800Y-100618860D02*
X156637800Y-95512700D01*
X149583140Y-93776800D02*
X154901900Y-93776800D01*
G04 #@! TO.N,/OUT-*
X156637800Y-102493860D02*
X156637800Y-102118860D01*
X156637800Y-102631862D02*
X156637800Y-102493860D01*
X153097662Y-106172000D02*
X156637800Y-102631862D01*
X151384000Y-106172000D02*
X153097662Y-106172000D01*
G04 #@! TO.N,/OUT-_2*
X156841000Y-128883000D02*
X156841000Y-128508000D01*
X156841000Y-129021002D02*
X156841000Y-128883000D01*
X155648001Y-130214001D02*
X156841000Y-129021002D01*
X152233999Y-130214001D02*
X155648001Y-130214001D01*
X151384000Y-131064000D02*
X152233999Y-130214001D01*
G04 #@! TO.N,/OUT+_2*
X156841000Y-127008000D02*
X156841000Y-122040460D01*
X152976580Y-118176040D02*
X150522940Y-118176040D01*
X156841000Y-122040460D02*
X152976580Y-118176040D01*
X150522940Y-118176040D02*
X148981160Y-119717820D01*
X148981160Y-131201160D02*
X151384000Y-133604000D01*
X148981160Y-119717820D02*
X148981160Y-131201160D01*
G04 #@! TO.N,/NC_2*
X155055000Y-128524000D02*
X155071000Y-128508000D01*
X151400000Y-128508000D02*
X151384000Y-128524000D01*
X155071000Y-128508000D02*
X151400000Y-128508000D01*
G04 #@! TO.N,/LRA_ERM_2*
X153408000Y-128008000D02*
X155071000Y-128008000D01*
X151384000Y-125984000D02*
X153408000Y-128008000D01*
G04 #@! TO.N,/PWM_2*
X151384000Y-123444000D02*
X153634440Y-125694440D01*
X154351000Y-127508000D02*
X155071000Y-127508000D01*
X154307998Y-127508000D02*
X154351000Y-127508000D01*
X153634440Y-126834442D02*
X154307998Y-127508000D01*
X153634440Y-125694440D02*
X153634440Y-126834442D01*
G04 #@! TO.N,/EN_2*
X152474000Y-120904000D02*
X154940000Y-123370000D01*
X151384000Y-120904000D02*
X152474000Y-120904000D01*
X154940000Y-123370000D02*
X155071000Y-123501000D01*
X155071000Y-123501000D02*
X155071000Y-127012999D01*
G04 #@! TD*
M02*
